# xmcd CD database file
#
# Track frame offsets:
#	150
#	18930
#	35297
#	58160
#	75702
#	88885
#	107557
#	120347
#	142092
#	156237
#	174975
#	190645
#
# Disc length: 2858 seconds
#
# Revision: 2
# Processed by: cddbd v1.4PL0 Copyright (c) Steve Scherf et al.
# Submitted via: CDex 1.40Release
#
DISCID=930b280c
DTITLE=Ranch Romance - Flip City
DYEAR=1993
DGENRE=Country
TTITLE0=Wheatfield Annie
TTITLE1=Baby's Gonna Come Back Home
TTITLE2=Sweet Comfort In The Blues
TTITLE3=Happy To See You
TTITLE4=Pool Of Tears
TTITLE5=Flip City
TTITLE6=Yes, Yes, Yes
TTITLE7=Break My Heart Again
TTITLE8=Swing Twain (Jammin' With Jimmy/Three Guitar Special)
TTITLE9=She Who Must Be Obeyed
TTITLE10=Have I Ever Let You Down...Completely
TTITLE11=Can You Really Let Go Of Columbia?
EXTD=YEAR: 1993 ID3G: 2
EXTT0=
EXTT1=
EXTT2=
EXTT3=
EXTT4=
EXTT5=
EXTT6=
EXTT7=
EXTT8=
EXTT9=
EXTT10=
EXTT11=
PLAYORDER=
